<svg version="1.1" id="Layer_1" xmlns="http://www.w3.org/2000/svg" xmlns:xlink="http://www.w3.org/1999/xlink" x="0px" y="0px"
	 width="100%" viewBox="0 0 1024 392" enable-background="new 0 0 1024 392" xml:space="preserve">
<path fill="#000000" opacity="1.000000" stroke="none" 
	d="
M630.000000,393.000000 
	C420.000000,393.000000 210.500000,393.000000 1.000000,393.000000 
	C1.000000,262.333344 1.000000,131.666672 1.000000,1.000000 
	C342.333344,1.000000 683.666687,1.000000 1025.000000,1.000000 
	C1025.000000,131.666672 1025.000000,262.333344 1025.000000,393.000000 
	C893.500000,393.000000 762.000000,393.000000 630.000000,393.000000 
M83.895935,117.832710 
	C83.895935,117.832710 83.819641,117.834061 83.196190,117.992233 
	C81.899864,119.369766 80.603546,120.747299 78.743950,122.506317 
	C77.321266,123.871574 75.911667,125.250793 74.473389,126.599426 
	C70.486427,130.337921 66.600777,134.134567 65.727867,140.531937 
	C65.849670,141.674149 65.971474,142.816345 66.112091,144.707245 
	C66.922050,146.785400 67.732018,148.863556 68.534691,151.525894 
	C68.918373,152.194458 69.302055,152.863037 69.747581,153.823547 
	C69.747581,153.823547 69.989212,153.998688 70.059219,154.757019 
	C73.352921,163.507751 76.646629,172.258499 79.990257,181.703781 
	C80.677193,183.130341 81.364128,184.556885 82.098732,186.598007 
	C82.760040,187.327667 83.421356,188.057343 84.384048,189.374710 
	C86.005112,190.406540 87.626167,191.438370 89.806694,192.987854 
	C91.548195,193.186005 93.289696,193.384155 95.510986,194.041992 
	C95.831406,194.347824 96.151825,194.653656 96.484337,195.695663 
	C98.395004,201.494797 100.163307,207.346268 102.269325,213.073563 
	C103.548111,216.551163 105.348808,219.836838 106.860451,223.931076 
	C107.250481,225.286591 107.640518,226.642090 107.991615,228.749908 
	C109.111710,231.830948 110.231804,234.911987 111.344872,238.724106 
	C113.342194,244.141861 115.339508,249.559601 117.303955,255.533661 
	C117.562927,256.010864 117.821892,256.488037 118.129181,257.655701 
	C118.860474,259.537720 119.591766,261.419769 120.377449,264.092346 
	C122.405037,269.712402 124.432617,275.332458 126.449699,281.672119 
	C129.658249,293.298645 140.467682,297.909149 149.907837,290.945862 
	C160.975616,282.782013 171.410675,273.761871 182.158630,265.161224 
	C183.662430,263.957886 185.385223,263.028229 187.164459,262.479156 
	C187.249466,262.634369 187.334488,262.789581 187.417404,263.538879 
	C187.865219,264.171997 188.313049,264.805145 188.908096,265.992554 
	C189.461945,266.755890 190.015778,267.519257 190.712875,268.973175 
	C194.401596,275.369293 199.201508,280.624054 206.222427,284.056152 
	C206.222427,284.056152 206.535690,284.122070 206.887024,284.625000 
	C207.582092,284.975922 208.277145,285.326843 209.621307,286.046387 
	C212.415070,287.029266 215.208817,288.012115 218.429901,289.314789 
	C218.945404,289.387146 219.460922,289.459503 220.626953,289.786224 
	C221.085968,289.854919 221.544998,289.923615 222.521484,290.351471 
	C223.337112,290.410950 224.152756,290.470428 225.718140,290.749451 
	C226.494049,290.806061 227.269974,290.862701 228.749542,291.323059 
	C233.478897,291.180359 238.208252,291.037689 243.654938,290.869293 
	C244.113724,290.738586 244.572495,290.607880 245.638000,290.590851 
	C246.400620,290.348724 247.163254,290.106598 248.685196,289.849884 
	C265.861084,285.564819 279.220337,275.582489 290.519104,261.847198 
	C290.519104,261.847198 290.799957,261.595215 291.198364,262.387939 
	C291.580933,266.577576 291.963470,270.767181 292.152954,275.836670 
	C292.298157,278.221558 292.443359,280.606445 292.359985,283.875061 
	C292.600372,287.570374 292.840729,291.265686 293.016846,295.632355 
	C293.062561,296.078552 293.108276,296.524719 293.037598,297.777679 
	C293.868683,306.424255 299.378784,311.879822 307.993286,311.819672 
	C320.449860,311.732697 332.902161,311.072754 345.359009,310.961243 
	C350.893921,310.911682 355.338562,309.019470 359.178223,305.189178 
	C363.411438,300.966248 367.740173,296.839111 372.610901,293.071747 
	C377.407196,296.381287 382.203461,299.690857 387.332947,303.580902 
	C392.701324,307.442017 397.903870,311.566772 403.490265,315.081329 
	C408.007599,317.923279 413.446838,318.281982 417.565735,314.871887 
	C423.230743,310.181671 428.074158,304.499176 433.823029,298.881378 
	C435.833649,296.479828 437.844238,294.078278 440.807465,291.740112 
	C448.436249,291.409119 456.236023,291.959473 463.649963,290.521088 
	C472.648590,288.775238 481.321625,285.351105 490.905334,282.520996 
	C494.848785,280.508820 499.029816,278.847107 502.665894,276.381622 
	C506.007965,274.115540 508.072906,274.716125 510.694641,277.398224 
	C512.936218,279.691345 515.846924,281.330414 518.855957,283.845276 
	C520.719910,284.917755 522.551147,286.052582 524.453125,287.052765 
	C538.582581,294.482727 554.167053,291.276031 569.061829,292.724976 
	C579.230713,293.714264 589.653687,292.153564 599.959106,291.650787 
	C605.201965,291.394989 610.385925,290.595825 614.012024,286.292511 
	C616.665283,283.143738 618.964172,283.275818 622.559998,285.138702 
	C648.977173,298.824768 677.264038,290.174225 696.567139,270.629669 
	C697.689636,269.544342 698.812073,268.459045 700.437561,267.943481 
	C701.051453,269.260590 701.665344,270.577698 702.285889,272.630951 
	C702.479614,274.092773 702.673279,275.554565 702.651794,277.389465 
	C702.833496,277.898346 703.015198,278.407196 703.267456,279.626678 
	C705.944458,286.899536 710.607422,290.040527 718.733643,289.693146 
	C720.450745,289.372437 722.167908,289.051758 724.588074,288.707031 
	C725.046631,288.612457 725.505249,288.517853 726.688171,288.612640 
	C728.102905,288.359528 729.517639,288.106415 731.699646,287.879944 
	C732.453552,287.749084 733.207458,287.618195 734.732849,287.640411 
	C736.461121,287.366089 738.189331,287.091797 740.688110,286.830353 
	C741.444641,286.698395 742.201111,286.566437 743.727783,286.603302 
	C745.460388,286.349091 747.192993,286.094910 749.702454,285.858826 
	C750.458801,285.697174 751.215149,285.535553 752.807739,285.586609 
	C756.377319,284.832397 759.946960,284.078186 764.186768,283.225037 
	C769.392212,278.107361 774.597656,272.989655 780.409485,267.568298 
	C786.491455,262.735504 789.018250,256.672424 788.072937,248.759750 
	C787.166321,241.172119 787.163391,233.476532 787.354065,225.472397 
	C793.915222,221.437637 800.476379,217.402893 807.136108,213.307510 
	C806.823181,219.893997 806.536255,225.934525 806.034973,232.861649 
	C806.277954,235.552872 806.520935,238.244080 806.603149,241.453506 
	C806.757263,241.957962 806.911377,242.462402 807.015991,243.724350 
	C807.171265,244.462357 807.326538,245.200363 807.387024,246.486633 
	C807.594910,246.989716 807.802795,247.492798 808.011902,248.774338 
	C809.977356,253.867188 811.942810,258.960022 813.990601,264.760406 
	C818.122681,269.811859 822.254700,274.863281 826.651367,280.494354 
	C836.193115,288.371277 847.536621,291.595490 859.519104,291.730804 
	C884.990356,292.018463 903.163818,278.147583 919.281128,259.379303 
	C938.509460,242.481171 948.183960,221.560623 945.787354,195.706635 
	C944.241638,179.032349 938.431885,164.428009 923.124146,155.721283 
	C896.865479,140.785858 869.236023,143.923080 846.387268,163.885056 
	C844.681335,165.375427 842.906982,166.787613 840.891968,168.462662 
	C840.114136,167.096436 839.572998,166.294449 839.175903,165.426590 
	C831.810242,149.330658 818.652466,140.371536 801.994629,136.596893 
	C792.989380,134.556320 783.804626,136.246307 774.893799,138.841583 
	C772.993958,139.394897 770.789429,139.204285 768.768250,138.976105 
	C764.563477,138.501389 760.339905,137.035294 756.209595,137.301773 
	C747.764282,137.846680 739.296143,138.862061 730.994873,140.487656 
	C726.479736,141.371841 722.287415,143.905029 717.296021,145.944321 
	C714.537354,148.716370 711.778687,151.488403 708.309021,154.059891 
	C680.290955,139.676422 655.311096,146.272736 631.563782,166.585434 
	C631.563782,163.300415 631.588745,161.501297 631.560059,159.703049 
	C631.140930,133.398117 630.748901,107.092674 630.275208,80.788712 
	C630.052551,68.424957 620.170044,62.121742 608.943909,67.082069 
	C599.202271,71.386475 589.382019,75.527557 579.774658,80.113914 
	C575.974060,81.928230 572.654907,84.750954 568.482178,87.337379 
	C563.731140,91.995659 558.779297,96.472237 554.323181,101.397400 
	C552.412415,103.509323 550.466797,106.517303 550.375488,109.181213 
	C550.045898,118.791443 550.498413,128.428497 550.589966,138.976486 
	C550.716187,143.376572 550.842407,147.776657 550.429565,152.572739 
	C545.641296,155.571106 540.652039,158.295609 536.109619,161.628937 
	C528.378662,167.302048 528.501587,167.455978 520.399719,161.892624 
	C519.165466,161.045074 517.913025,160.199265 516.584351,159.517639 
	C487.583649,144.640137 460.088623,147.992813 433.668060,166.145462 
	C431.489716,167.642151 428.209473,168.432861 425.566742,168.189407 
	C417.282654,167.426147 408.936279,166.546646 400.845276,164.699356 
	C392.582397,162.812881 385.435272,164.231094 378.555756,168.804260 
	C375.908569,170.563965 372.996643,171.925323 369.664490,173.767166 
	C369.413788,171.355072 369.232452,170.061508 369.151215,168.761703 
	C367.748627,146.319870 366.398285,123.874687 364.949127,101.435883 
	C364.186981,89.635094 355.437958,83.741180 344.409241,88.056419 
	C330.456757,93.515640 316.701935,99.485214 302.924408,105.380852 
	C300.839325,106.273094 299.092804,107.956604 296.548798,109.458138 
	C293.481079,112.456230 290.662628,115.775139 287.297150,118.390030 
	C278.520020,125.209595 276.038635,134.669815 275.146027,145.737640 
	C275.107208,146.233505 275.068359,146.729355 274.120758,147.213409 
	C267.991333,147.166763 261.772339,146.424881 255.748886,147.200790 
	C235.813751,149.768707 221.237000,161.675201 207.430466,176.052811 
	C204.958130,178.402649 202.485809,180.752487 200.006149,182.280441 
	C199.976929,181.458710 199.947693,180.636963 200.209473,179.222092 
	C203.413788,175.177521 207.078888,171.410797 209.721802,167.027710 
	C214.502502,159.099274 219.210327,151.038376 222.916702,142.580597 
	C225.553741,136.563080 225.152695,129.831390 222.363739,123.602295 
	C217.177521,112.018845 208.937164,103.441048 197.062820,98.684860 
	C182.505814,92.854156 167.182434,92.660614 152.346085,95.742256 
	C132.374847,99.890472 112.767899,105.837349 93.098953,111.348961 
	C90.080612,112.194756 87.568199,114.846016 84.352631,116.944412 
	C84.180580,117.256454 84.008530,117.568489 83.895935,117.832710 
z"/>
<path fill="#3960A7" opacity="1.000000" stroke="none" 
	d="
M290.799927,261.595215 
	C290.799957,261.595215 290.519104,261.847198 289.975891,261.927216 
	C287.664978,262.877777 285.901611,263.757324 284.128662,264.617065 
	C279.657684,266.785187 275.328003,269.344604 270.682617,271.035278 
	C253.895782,277.144897 237.699753,274.804962 221.792618,266.707642 
	C217.374741,262.647980 213.190002,258.824097 208.865067,254.683044 
	C205.542755,247.874161 202.360641,241.382431 199.146423,234.474213 
	C198.375244,227.705841 197.636154,221.353973 196.916779,214.546967 
	C197.043121,201.625641 199.670227,189.893707 206.840729,179.429123 
	C207.543106,178.404114 207.668732,176.983932 208.062057,175.747162 
	C221.237000,161.675201 235.813751,149.768707 255.748886,147.200790 
	C261.772339,146.424881 267.991333,147.166763 274.839020,147.443314 
	C278.357483,148.471954 281.157715,149.270691 284.245483,150.264236 
	C290.709320,153.465500 296.885559,156.471954 303.061768,159.478409 
	C303.552002,159.114838 304.042206,158.751251 304.532410,158.387680 
	C303.538513,156.333649 302.969940,152.944855 301.473480,152.468018 
	C296.339325,150.832047 293.657806,147.065918 291.048218,142.518738 
	C291.401093,137.391464 291.755829,132.713074 292.290710,127.703323 
	C294.043793,121.339340 295.616730,115.306725 297.189667,109.274117 
	C299.092804,107.956604 300.839325,106.273094 302.924408,105.380852 
	C316.701935,99.485214 330.456757,93.515640 344.409241,88.056419 
	C355.437958,83.741180 364.186981,89.635094 364.949127,101.435883 
	C366.398285,123.874687 367.748627,146.319870 369.151215,168.761703 
	C369.232452,170.061508 369.413788,171.355072 369.664490,173.767166 
	C372.996643,171.925323 375.908569,170.563965 378.555756,168.804260 
	C385.435272,164.231094 392.582397,162.812881 400.845276,164.699356 
	C408.936279,166.546646 417.282654,167.426147 425.566742,168.189407 
	C428.209473,168.432861 431.489716,167.642151 433.668060,166.145462 
	C460.088623,147.992813 487.583649,144.640137 516.584351,159.517639 
	C517.913025,160.199265 519.165466,161.045074 520.399719,161.892624 
	C528.501587,167.455978 528.378662,167.302048 536.109619,161.628937 
	C540.652039,158.295609 545.641296,155.571106 551.105591,152.347260 
	C555.762085,151.027634 559.713135,149.805359 563.732666,148.880814 
	C566.824219,148.169693 568.166809,146.552689 568.062134,143.331970 
	C567.874023,137.547791 567.935059,131.755493 567.919067,125.502388 
	C567.879761,119.327965 567.813416,113.617760 567.780151,107.446884 
	C568.247681,100.362320 568.682068,93.738426 569.116516,87.114532 
	C572.654907,84.750954 575.974060,81.928230 579.774658,80.113914 
	C589.382019,75.527557 599.202271,71.386475 608.943909,67.082069 
	C620.170044,62.121742 630.052551,68.424957 630.275208,80.788712 
	C630.748901,107.092674 631.140930,133.398117 631.560059,159.703049 
	C631.588745,161.501297 631.563782,163.300415 631.563782,166.585434 
	C655.311096,146.272736 680.290955,139.676422 708.864990,154.408203 
	C710.855286,155.691452 712.289673,156.626389 713.781616,157.598846 
	C715.307251,153.241348 716.628418,149.467896 717.949524,145.694458 
	C722.287415,143.905029 726.479736,141.371841 730.994873,140.487656 
	C739.296143,138.862061 747.764282,137.846680 756.209595,137.301773 
	C760.339905,137.035294 764.563477,138.501389 768.768250,138.976105 
	C770.789429,139.204285 772.993958,139.394897 774.893799,138.841583 
	C783.804626,136.246307 792.989380,134.556320 801.994629,136.596893 
	C818.652466,140.371536 831.810242,149.330658 839.175903,165.426590 
	C839.572998,166.294449 840.114136,167.096436 840.891968,168.462662 
	C842.906982,166.787613 844.681335,165.375427 846.387268,163.885056 
	C869.236023,143.923080 896.865479,140.785858 923.124146,155.721283 
	C938.431885,164.428009 944.241638,179.032349 945.787354,195.706635 
	C948.183960,221.560623 938.509460,242.481171 918.664490,259.613892 
	C915.357422,261.480530 912.647217,263.080902 909.979980,264.750031 
	C898.656860,271.835876 886.434570,275.083923 873.003235,274.196747 
	C863.284119,273.554779 854.602966,270.086761 845.914124,265.513550 
	C841.141418,260.177185 836.570435,255.093079 831.860718,249.681366 
	C829.824036,244.902237 827.926025,240.450714 825.993408,235.601349 
	C824.996460,230.794357 824.034180,226.385208 823.071533,221.510345 
	C823.451172,212.987595 823.831238,204.930573 824.271362,195.599564 
	C819.662231,198.502304 815.496338,200.778915 811.718140,203.578735 
	C804.197998,209.151443 796.681641,211.412888 788.540771,204.916946 
	C788.390625,204.797180 787.937744,205.056808 786.763367,205.368149 
	C786.763367,212.032608 786.763367,218.930496 786.763367,225.828384 
	C787.163391,233.476532 787.166321,241.172119 788.072937,248.759750 
	C789.018250,256.672424 786.491455,262.735504 779.651367,267.543762 
	C777.738647,267.561676 776.575867,267.531189 775.430481,267.657806 
	C762.211426,269.119446 748.988342,270.548950 735.780579,272.107971 
	C729.269775,272.876526 724.452209,270.409546 720.844788,264.645020 
	C719.778564,259.520111 718.830811,254.766098 717.817322,249.682144 
	C709.808533,255.963028 702.353394,261.809753 694.524780,267.728882 
	C674.415771,276.457886 654.937988,277.516479 635.726501,266.127289 
	C634.776245,265.563934 631.959778,266.333740 631.348694,267.315002 
	C628.014343,272.669403 623.168823,274.110809 617.267029,274.111176 
	C602.205444,274.112152 587.309448,276.049133 572.028320,274.721802 
	C560.693176,273.737183 549.611084,273.510071 538.728821,268.876221 
	C534.110718,265.392334 529.856018,261.982605 525.364319,258.920288 
	C524.154114,258.095154 521.903320,257.622223 520.676514,258.182983 
	C511.704987,262.283905 502.872620,266.689392 493.612946,271.069763 
	C475.757019,275.073090 458.218994,276.071014 439.854828,271.210480 
	C439.854828,278.760925 439.854828,285.218811 439.854828,291.676697 
	C437.844238,294.078278 435.833649,296.479828 433.124969,299.003937 
	C426.157928,300.874268 420.790436,299.033813 415.817749,295.166718 
	C413.370880,293.263855 410.675446,291.680664 407.895081,289.680206 
	C397.962280,282.341431 388.226898,275.275238 378.491516,268.209045 
	C378.022797,268.447723 377.554047,268.686432 377.085297,268.925110 
	C377.085297,272.810455 377.768341,276.857513 376.897095,280.536560 
	C375.989105,284.370605 373.582092,287.849670 371.442810,291.580627 
	C368.173309,292.387573 365.305725,293.638916 362.407349,293.714783 
	C349.656494,294.048584 336.895996,294.172272 324.140472,294.102356 
	C318.307922,294.070404 313.480743,291.815277 311.058105,285.552002 
	C310.601746,278.446899 310.161652,271.765747 309.754913,264.658875 
	C309.327087,257.459625 308.865906,250.686050 308.391602,243.719818 
	C303.163818,248.630920 298.470032,252.947052 293.902588,257.392975 
	C292.671417,258.591370 291.823669,260.183685 290.799927,261.595215 
M782.201233,151.996460 
	C778.206726,153.087143 774.154419,154.006378 770.237061,155.326096 
	C767.414185,156.277084 765.365479,156.255203 763.256958,153.688660 
	C762.211914,152.416656 759.837402,151.433670 758.189026,151.594879 
	C749.452332,152.449371 740.739563,153.607697 732.063049,154.948654 
	C730.908508,155.127106 730.007263,156.944473 728.816467,158.926422 
	C729.172058,176.040604 729.265076,193.165482 729.962280,210.265717 
	C730.570679,225.188354 731.893494,240.081161 732.817566,254.992294 
	C732.983337,257.666046 733.877197,258.960114 736.778198,258.576080 
	C747.151489,257.202850 757.538147,255.930435 768.731689,254.760864 
	C773.362244,255.176376 774.163086,252.742233 773.968140,248.640137 
	C773.407654,236.847900 773.134094,225.039383 772.919617,213.234146 
	C772.748718,203.828186 773.972595,194.649979 778.934143,185.759521 
	C791.474487,175.417389 793.405273,189.828552 799.767517,194.896561 
	C807.129578,189.955795 814.540466,184.982224 822.653870,179.909622 
	C828.622620,176.348770 828.764648,175.904037 825.893188,169.763138 
	C819.041199,155.109360 799.017334,146.824753 782.201233,151.996460 
M911.300293,246.265411 
	C911.300293,246.265411 911.316833,246.350998 911.996277,246.250717 
	C927.890686,232.954056 933.751343,215.771011 931.761353,195.490402 
	C930.069214,178.245697 920.905396,167.260361 904.243896,162.690109 
	C893.570129,159.762299 882.948486,159.284042 872.871094,164.795517 
	C872.871094,164.795517 872.920715,164.692154 872.216797,164.575180 
	C871.392700,164.989059 870.568604,165.402939 869.113953,166.095108 
	C847.673401,177.270462 834.645508,193.624695 836.907959,219.122070 
	C838.139343,232.999603 842.295654,245.737259 854.233521,254.237579 
	C869.405457,265.040649 892.246094,262.752228 908.668335,249.113785 
	C908.944702,248.745682 909.221008,248.377594 909.617920,248.024551 
	C909.617920,248.024551 909.634460,247.904175 910.298584,247.794189 
	C910.661377,247.281250 911.024109,246.768311 911.300293,246.265411 
M479.457489,231.474991 
	C477.725739,231.703934 475.993958,231.932877 472.904907,232.341278 
	C474.668152,229.963562 475.550262,228.639557 476.564850,227.426346 
	C489.364441,212.121384 502.172394,196.823349 515.009521,181.549911 
	C516.758179,179.469406 517.998169,177.876938 515.108276,175.414124 
	C501.173706,163.538910 470.387024,161.128540 453.945618,171.038849 
	C445.570282,174.997452 437.716949,179.732788 432.978546,188.033920 
	C426.244629,199.830856 422.848663,212.608490 423.392365,226.235153 
	C424.181274,246.007782 434.154755,257.421143 453.708832,260.350372 
	C460.041260,261.299011 466.664337,261.298981 473.052338,260.679565 
	C486.559631,259.369843 499.597351,256.175903 511.587433,247.916290 
	C512.666443,247.147461 513.795959,246.439957 514.816528,245.600113 
	C522.883911,238.961426 523.090576,236.920212 516.537903,229.065475 
	C511.915009,223.523956 507.283844,217.989304 502.191010,211.894653 
	C500.433746,214.432114 499.236084,216.161530 497.404297,218.164352 
	C493.287903,224.688354 487.119629,228.585907 479.457489,231.474991 
M282.646576,249.061539 
	C297.906189,237.398071 305.889862,222.095612 306.071075,202.761276 
	C306.272278,181.287369 297.091431,168.003082 277.438690,162.533325 
	C265.884186,159.317459 254.429962,159.595505 243.036423,166.059143 
	C230.944092,172.280212 220.323288,180.365494 214.820038,193.107681 
	C207.336624,210.434662 209.274292,227.590836 218.414536,243.886047 
	C222.359985,250.919968 228.407547,255.808243 236.131470,258.447021 
	C251.699493,263.765625 265.889648,260.624115 279.750732,251.316772 
	C280.194916,250.845215 280.639069,250.373642 281.442139,249.767258 
	C281.676147,249.639191 281.844696,249.452133 282.646576,249.061539 
M657.879761,165.956924 
	C632.072266,178.660522 621.374451,198.997498 626.233765,226.117096 
	C629.853821,246.320267 643.159363,259.556885 661.266541,260.860657 
	C673.371399,261.732208 684.284546,258.431519 694.659790,251.060837 
	C694.928467,250.725891 695.197083,250.390945 695.948364,249.847595 
	C696.593140,249.264816 697.237915,248.682022 698.577209,247.957916 
	C713.634399,236.144135 720.951721,220.533737 720.716492,201.532776 
	C720.455200,180.420837 711.438843,168.050980 692.303345,162.597855 
	C680.760132,159.308350 669.300232,159.539474 657.879761,165.956924 
M361.730316,244.763229 
	C361.832123,243.321625 361.933960,241.880020 362.088440,239.692596 
	C381.493134,253.517471 400.297729,266.914825 419.373169,280.870575 
	C421.539215,282.253235 423.705292,283.635925 426.996552,285.736877 
	C426.412354,275.398041 426.137054,266.322968 425.233551,257.310883 
	C424.989014,254.872131 423.400604,251.915543 421.479187,250.404068 
	C409.575623,241.040115 397.359558,232.074402 385.369385,222.818283 
	C383.879913,221.668488 383.111816,219.584274 382.601654,217.633759 
	C395.026794,208.066711 407.451935,198.499649 420.562134,188.800293 
	C422.435486,187.307724 424.308838,185.815170 427.095306,183.595078 
	C424.188080,182.908173 422.499512,182.382462 420.770996,182.122528 
	C412.866608,180.933914 404.905487,180.061813 397.057037,178.585495 
	C392.559631,177.739548 388.883087,178.583908 384.887329,181.758011 
	C375.606567,186.611801 366.325775,191.465591 356.932892,195.407318 
	C354.849182,164.243500 352.765472,133.079666 350.612335,100.877533 
	C347.457214,102.368423 345.429260,103.326683 342.680756,104.420395 
	C332.543762,108.677620 322.396667,112.911079 312.282013,117.220695 
	C310.945190,117.790268 308.937225,118.526894 308.663300,119.562592 
	C307.036743,125.712196 305.829437,131.972717 304.344788,138.825714 
	C308.945923,137.965073 312.315582,137.334763 316.440155,136.563263 
	C316.706665,140.260834 316.998657,143.510193 317.166748,146.765961 
	C319.398865,190.001556 321.643402,233.236603 323.770905,276.477386 
	C323.925354,279.616577 324.782776,280.988617 328.109711,280.869965 
	C337.759705,280.525696 347.417358,280.396332 357.707977,280.450623 
	C360.306122,280.251953 363.873383,281.581665 363.585052,276.784607 
	C362.958862,266.367920 362.315125,255.952286 361.730316,244.763229 
M613.811218,260.756073 
	C618.620544,261.414734 619.639954,258.961456 619.525879,254.631683 
	C618.956970,233.039429 618.606689,211.441315 618.201599,189.844849 
	C617.618408,158.755753 617.040894,127.666534 616.495300,96.576759 
	C616.402832,91.306717 616.482239,86.033653 616.482239,79.537315 
	C613.469360,81.102676 611.644226,82.050911 609.118591,83.094101 
	C601.065918,86.688095 593.057312,90.386322 584.935974,93.817818 
	C582.205383,94.971550 581.239807,96.557961 581.293945,99.484573 
	C581.604431,116.285912 581.758118,133.090179 581.948120,149.893646 
	C581.986938,153.325821 581.953796,156.758820 581.953796,160.363327 
	C580.114868,160.507584 578.985413,160.598907 577.855591,160.684433 
	C541.234253,163.455719 518.000793,192.447418 524.824646,226.859268 
	C529.437866,250.123154 545.973206,263.044556 568.477783,260.737274 
	C572.722961,260.302032 576.883057,259.037537 579.465210,258.495331 
	C582.304077,260.152710 583.997009,261.999664 585.645569,261.961029 
	C594.782593,261.746735 603.908936,261.073700 613.811218,260.756073 
M404.622864,218.691223 
	C405.809113,220.345734 406.995392,222.000259 408.181641,223.654770 
	C408.613861,223.444534 409.046051,223.234299 409.478271,223.024063 
	C409.478271,220.652969 409.478271,218.281876 409.478271,214.822144 
	C407.405365,216.305405 406.149750,217.203857 404.622864,218.691223 
z"/>
<path fill="#385FA7" opacity="1.000000" stroke="none" 
	d="
M84.821800,116.662270 
	C87.568199,114.846016 90.080612,112.194756 93.098953,111.348961 
	C112.767899,105.837349 132.374847,99.890472 152.346085,95.742256 
	C167.182434,92.660614 182.505814,92.854156 197.062820,98.684860 
	C208.937164,103.441048 217.177521,112.018845 222.363739,123.602295 
	C225.152695,129.831390 225.553741,136.563080 222.916702,142.580597 
	C219.210327,151.038376 214.502502,159.099274 209.721802,167.027710 
	C207.078888,171.410797 203.413788,175.177521 199.761322,179.664429 
	C194.711609,185.021652 190.506042,190.405182 185.398438,194.721237 
	C180.163040,199.145264 180.047668,203.592773 183.005890,209.372620 
	C184.035385,213.512253 185.054657,217.253052 186.135651,221.367950 
	C187.808426,227.169800 189.419495,232.597580 191.106415,238.407120 
	C193.180084,245.172058 194.369507,251.424164 188.766556,256.821747 
	C187.964920,257.593994 187.521362,258.737946 186.556091,259.775696 
	C184.812454,260.679443 183.370972,261.440521 182.046463,262.368561 
	C176.251358,266.428986 170.730530,270.945404 164.656540,274.527130 
	C156.861343,279.123779 148.947327,276.617889 144.877594,268.654175 
	C142.874176,262.858765 140.919357,257.433441 138.899841,251.639297 
	C136.546997,244.851486 134.258835,238.432480 131.904602,231.643280 
	C129.930008,226.166168 128.021515,221.059250 126.063370,215.570572 
	C124.357674,210.457596 122.701607,205.726395 120.970566,200.626282 
	C118.744453,193.834122 116.782494,187.337189 114.327072,181.032471 
	C113.588982,179.137299 111.638580,176.608948 109.966110,176.377762 
	C103.357414,175.464218 100.002235,171.075623 96.959671,165.594971 
	C95.902000,162.245056 95.049980,159.206390 93.890221,156.290100 
	C91.711090,150.810532 89.354172,145.401688 87.046860,139.568741 
	C86.597427,137.407806 86.066437,135.659225 85.768288,133.871796 
	C85.049515,129.562698 84.439651,125.235435 83.840042,120.532883 
	C83.869370,119.378204 83.844505,118.606133 83.819641,117.834061 
	C83.819641,117.834061 83.895935,117.832710 84.109467,117.726837 
	C84.489265,117.301399 84.655533,116.981834 84.821800,116.662270 
M173.871216,251.295822 
	C178.840454,249.131012 179.196930,245.796951 177.640808,240.827240 
	C173.378525,227.215012 169.702271,213.418304 165.873428,199.672501 
	C165.349136,197.790268 165.276947,195.782120 165.495346,193.495773 
	C166.621933,192.362122 167.748520,191.228455 169.564987,189.940094 
	C172.611069,187.123322 175.787888,184.433990 178.679901,181.467041 
	C189.486038,170.380936 200.135498,159.088715 207.236694,145.157562 
	C212.683456,134.472107 211.020050,126.768250 202.416382,118.618073 
	C196.803482,113.301033 190.055359,109.971527 182.430923,109.281082 
	C175.340225,108.638969 168.115662,108.420586 161.028564,108.991158 
	C139.784134,110.701515 119.846756,117.934547 99.754997,124.393997 
	C98.949905,124.652832 98.514862,126.062698 97.998894,127.688698 
	C102.175949,138.963531 106.353012,150.238373 110.803223,162.250504 
	C114.171936,159.252777 116.568672,157.119980 119.507690,154.504639 
	C132.272491,190.889709 144.784256,226.553558 157.552765,262.949219 
	C163.356949,258.674316 168.253372,255.068024 173.871216,251.295822 
z"/>
<path fill="#103A73" opacity="1.000000" stroke="none" 
	d="
M539.003174,269.080872 
	C549.611084,273.510071 560.693176,273.737183 572.028320,274.721802 
	C587.309448,276.049133 602.205444,274.112152 617.267029,274.111176 
	C623.168823,274.110809 628.014343,272.669403 631.348694,267.315002 
	C631.959778,266.333740 634.776245,265.563934 635.726501,266.127289 
	C654.937988,277.516479 674.415771,276.457886 694.657104,268.058716 
	C695.436279,269.192444 695.709717,270.068726 695.983154,270.945007 
	C677.264038,290.174225 648.977173,298.824768 622.559998,285.138702 
	C618.964172,283.275818 616.665283,283.143738 614.012024,286.292511 
	C610.385925,290.595825 605.201965,291.394989 599.959106,291.650787 
	C589.653687,292.153564 579.230713,293.714264 569.061829,292.724976 
	C554.167053,291.276031 538.582581,294.482727 524.453125,287.052765 
	C522.551147,286.052582 520.719910,284.917755 519.108337,283.493103 
	C528.945435,282.697357 533.229919,274.849213 539.003174,269.080872 
z"/>
<path fill="#132F64" opacity="1.000000" stroke="none" 
	d="
M311.074371,285.975891 
	C313.480743,291.815277 318.307922,294.070404 324.140472,294.102356 
	C336.895996,294.172272 349.656494,294.048584 362.407349,293.714783 
	C365.305725,293.638916 368.173309,292.387573 371.494141,291.878235 
	C371.964569,292.276184 371.995941,292.473206 372.027313,292.670258 
	C367.740173,296.839111 363.411438,300.966248 359.178223,305.189178 
	C355.338562,309.019470 350.893921,310.911682 345.359009,310.961243 
	C332.902161,311.072754 320.449860,311.732697 307.993286,311.819672 
	C299.378784,311.879822 293.868683,306.424255 293.468170,297.366180 
	C296.591492,295.315674 299.315399,293.725311 301.968811,292.024933 
	C305.036407,290.059143 308.041931,287.996490 311.074371,285.975891 
z"/>
<path fill="#0F3B74" opacity="1.000000" stroke="none" 
	d="
M846.115906,265.765869 
	C854.602966,270.086761 863.284119,273.554779 873.003235,274.196747 
	C886.434570,275.083923 898.656860,271.835876 909.979980,264.750031 
	C912.647217,263.080902 915.357422,261.480530 918.399353,259.813660 
	C903.163818,278.147583 884.990356,292.018463 859.519104,291.730804 
	C847.536621,291.595490 836.193115,288.371277 826.875305,280.203613 
	C830.113281,278.393951 833.442444,277.283051 836.065002,275.257324 
	C839.693970,272.454254 842.791077,268.962646 846.115906,265.765869 
z"/>
<path fill="#0F3D77" opacity="1.000000" stroke="none" 
	d="
M720.963318,265.015869 
	C724.452209,270.409546 729.269775,272.876526 735.780579,272.107971 
	C748.988342,270.548950 762.211426,269.119446 775.430481,267.657806 
	C776.575867,267.531189 777.738647,267.561676 779.348145,267.695557 
	C774.597656,272.989655 769.392212,278.107361 763.403931,283.231110 
	C759.071289,283.949432 755.521362,284.661682 751.971497,285.373901 
	C751.215149,285.535553 750.458801,285.697174 749.018738,285.684387 
	C746.542542,285.818115 744.750122,286.126312 742.957642,286.434509 
	C742.201111,286.566437 741.444641,286.698395 740.005188,286.663116 
	C737.535278,286.826355 735.748352,287.156830 733.961365,287.487305 
	C733.207458,287.618195 732.453552,287.749084 731.042480,287.703979 
	C728.911499,287.826447 727.437622,288.124847 725.963806,288.423279 
	C725.505249,288.517853 725.046631,288.612457 723.936279,288.570801 
	C721.510437,288.798126 719.736389,289.161652 717.962341,289.525146 
	C710.607422,290.040527 705.944458,286.899536 703.379761,279.059906 
	C703.658264,278.006042 703.824524,277.518982 704.255676,276.825134 
	C707.856018,273.737823 711.062256,270.685150 714.579468,268.047119 
	C716.426331,266.661896 718.817749,266.002838 720.963318,265.015869 
z"/>
<path fill="#0F3B73" opacity="1.000000" stroke="none" 
	d="
M222.025757,266.943390 
	C237.699753,274.804962 253.895782,277.144897 270.682617,271.035278 
	C275.328003,269.344604 279.657684,266.785187 284.128662,264.617065 
	C285.901611,263.757324 287.664978,262.877777 289.814148,262.024384 
	C279.220337,275.582489 265.861084,285.564819 248.090302,289.719727 
	C246.674026,289.885437 245.852646,290.181305 245.031281,290.477173 
	C244.572495,290.607880 244.113724,290.738586 242.938843,290.696899 
	C237.497131,290.656128 232.771500,290.787720 228.045883,290.919342 
	C227.269974,290.862701 226.494049,290.806061 225.211990,290.421509 
	C223.805237,290.059814 222.904617,290.026062 222.004013,289.992310 
	C221.544998,289.923615 221.085968,289.854919 220.204498,289.474854 
	C219.188889,289.107300 218.595734,289.051147 218.002579,288.994995 
	C215.208817,288.012115 212.415070,287.029266 209.146027,285.603729 
	C207.959076,284.814728 207.247375,284.468384 206.535690,284.122070 
	C206.535690,284.122070 206.222427,284.056152 206.149704,283.615387 
	C211.393234,277.764221 216.709503,272.353790 222.025757,266.943390 
z"/>
<path fill="#026BAF" opacity="1.000000" stroke="none" 
	d="
M97.026413,165.961472 
	C100.002235,171.075623 103.357414,175.464218 109.966110,176.377762 
	C111.638580,176.608948 113.588982,179.137299 114.327072,181.032471 
	C116.782494,187.337189 118.744453,193.834122 120.634399,200.709991 
	C117.074951,204.114685 113.916901,207.248566 110.421089,209.944458 
	C108.588623,211.357620 106.163857,212.002701 103.858322,212.665924 
	C101.297462,206.544632 98.884850,200.752075 96.472244,194.959503 
	C96.151825,194.653656 95.831406,194.347824 95.044846,193.520782 
	C92.801552,192.823105 91.024391,192.646652 89.247223,192.470184 
	C87.626167,191.438370 86.005112,190.406540 84.196564,188.769196 
	C83.356407,187.436935 82.703735,186.710190 82.051064,185.983444 
	C81.364128,184.556885 80.677193,183.130341 80.298203,181.275436 
	C81.674767,179.846222 82.727844,178.828125 83.814720,177.847504 
	C88.212952,173.879227 92.621605,169.922470 97.026413,165.961472 
z"/>
<path fill="#103A73" opacity="1.000000" stroke="none" 
	d="
M440.331146,291.708405 
	C439.854828,285.218811 439.854828,278.760925 439.854828,271.210480 
	C458.218994,276.071014 475.757019,275.073090 493.580139,271.434998 
	C492.665649,275.370544 491.400604,279.011810 490.135529,282.653107 
	C481.321625,285.351105 472.648590,288.775238 463.649963,290.521088 
	C456.236023,291.959473 448.436249,291.409119 440.331146,291.708405 
z"/>
<path fill="#0661A3" opacity="1.000000" stroke="none" 
	d="
M787.058716,225.650391 
	C786.763367,218.930496 786.763367,212.032608 786.763367,205.368149 
	C787.937744,205.056808 788.390625,204.797180 788.540771,204.916946 
	C796.681641,211.412888 804.197998,209.151443 811.718140,203.578735 
	C815.496338,200.778915 819.662231,198.502304 824.271362,195.599564 
	C823.831238,204.930573 823.451172,212.987595 822.729980,221.598480 
	C819.443848,224.415039 816.633972,226.891479 813.507874,228.867615 
	C811.311340,230.256165 808.684204,230.963531 806.249329,231.975037 
	C806.536255,225.934525 806.823181,219.893997 807.136108,213.307510 
	C800.476379,217.402893 793.915222,221.437637 787.058716,225.650391 
z"/>
<path fill="#0F417C" opacity="1.000000" stroke="none" 
	d="
M490.520447,282.587036 
	C491.400604,279.011810 492.665649,275.370544 493.963531,271.364014 
	C502.872620,266.689392 511.704987,262.283905 520.676514,258.182983 
	C521.903320,257.622223 524.154114,258.095154 525.364319,258.920288 
	C529.856018,261.982605 534.110718,265.392334 538.728821,268.876221 
	C533.229919,274.849213 528.945435,282.697357 518.911194,283.199829 
	C515.846924,281.330414 512.936218,279.691345 510.694641,277.398224 
	C508.072906,274.716125 506.007965,274.115540 502.665894,276.381622 
	C499.029816,278.847107 494.848785,280.508820 490.520447,282.587036 
z"/>
<path fill="#123770" opacity="1.000000" stroke="none" 
	d="
M372.319092,292.871002 
	C371.995941,292.473206 371.964569,292.276184 371.881836,291.781555 
	C373.582092,287.849670 375.989105,284.370605 376.897095,280.536560 
	C377.768341,276.857513 377.085297,272.810455 377.085297,268.925110 
	C377.554047,268.686432 378.022797,268.447723 378.491516,268.209045 
	C388.226898,275.275238 397.962280,282.341431 407.543335,289.766663 
	C404.217560,292.679077 400.444763,294.768768 398.027252,297.903656 
	C395.030396,301.789825 391.652740,303.406219 386.999756,303.000397 
	C382.203461,299.690857 377.407196,296.381287 372.319092,292.871002 
z"/>
<path fill="#142D62" opacity="1.000000" stroke="none" 
	d="
M387.166351,303.290649 
	C391.652740,303.406219 395.030396,301.789825 398.027252,297.903656 
	C400.444763,294.768768 404.217560,292.679077 407.740784,290.039246 
	C410.675446,291.680664 413.370880,293.263855 415.817749,295.166718 
	C420.790436,299.033813 426.157928,300.874268 432.848267,299.184143 
	C428.074158,304.499176 423.230743,310.181671 417.565735,314.871887 
	C413.446838,318.281982 408.007599,317.923279 403.490265,315.081329 
	C397.903870,311.566772 392.701324,307.442017 387.166351,303.290649 
z"/>
<path fill="#0F3971" opacity="1.000000" stroke="none" 
	d="
M144.926178,269.024261 
	C148.947327,276.617889 156.861343,279.123779 164.656540,274.527130 
	C170.730530,270.945404 176.251358,266.428986 182.046463,262.368561 
	C183.370972,261.440521 184.812454,260.679443 186.583923,260.155151 
	C186.980698,260.969849 186.993683,261.470886 187.006653,261.971924 
	C185.385223,263.028229 183.662430,263.957886 182.158630,265.161224 
	C171.410675,273.761871 160.975616,282.782013 149.907837,290.945862 
	C140.467682,297.909149 129.658249,293.298645 126.814621,281.314056 
	C129.543518,279.714264 132.061066,278.693542 134.237061,277.181335 
	C137.913910,274.626038 141.374603,271.759766 144.926178,269.024261 
z"/>
<path fill="#055C9C" opacity="1.000000" stroke="none" 
	d="
M96.959671,165.594971 
	C92.621605,169.922470 88.212952,173.879227 83.814720,177.847504 
	C82.727844,178.828125 81.674767,179.846222 80.273247,180.928162 
	C76.646629,172.258499 73.352921,163.507751 70.373581,154.343750 
	C72.083893,152.835571 73.526222,151.794327 74.867126,150.635696 
	C78.956131,147.102554 83.006058,143.524200 87.071182,139.963425 
	C89.354172,145.401688 91.711090,150.810532 93.890221,156.290100 
	C95.049980,159.206390 95.902000,162.245056 96.959671,165.594971 
z"/>
<path fill="#0C447F" opacity="1.000000" stroke="none" 
	d="
M845.914124,265.513580 
	C842.791077,268.962646 839.693970,272.454254 836.065002,275.257324 
	C833.442444,277.283051 830.113281,278.393951 826.742981,279.913788 
	C822.254700,274.863281 818.122681,269.811859 814.273254,264.256958 
	C816.857605,262.182983 819.270569,260.750916 821.435974,259.010834 
	C825.040649,256.114166 828.486633,253.019989 831.999451,250.008987 
	C836.570435,255.093079 841.141418,260.177185 845.914124,265.513580 
z"/>
<path fill="#0E427E" opacity="1.000000" stroke="none" 
	d="
M221.792618,266.707642 
	C216.709503,272.353790 211.393234,277.764221 206.030823,283.508240 
	C199.201508,280.624054 194.401596,275.369293 190.982300,268.443237 
	C194.455627,265.352753 197.584686,262.690308 200.887390,260.264191 
	C203.482132,258.358124 206.291336,256.744019 209.005249,255.000214 
	C213.190002,258.824097 217.374741,262.647980 221.792618,266.707642 
z"/>
<path fill="#0A4F8D" opacity="1.000000" stroke="none" 
	d="
M131.970673,232.013489 
	C134.258835,238.432480 136.546997,244.851486 138.527100,251.647644 
	C135.070206,254.259201 132.001205,256.619019 128.747803,258.688995 
	C126.052406,260.403961 123.139565,261.777191 120.323059,263.301788 
	C119.591766,261.419769 118.860474,259.537720 118.221542,257.125946 
	C117.988213,256.056580 117.662521,255.516968 117.336823,254.977356 
	C115.339508,249.559601 113.342194,244.141861 111.625092,238.516815 
	C115.717606,244.059326 115.615898,243.932877 121.358711,239.313980 
	C124.695030,236.630569 128.420380,234.430847 131.970673,232.013489 
z"/>
<path fill="#094F8D" opacity="1.000000" stroke="none" 
	d="
M87.046860,139.568741 
	C83.006058,143.524200 78.956131,147.102554 74.867126,150.635696 
	C73.526222,151.794327 72.083893,152.835571 70.338577,153.964584 
	C69.989212,153.998688 69.747581,153.823547 69.733902,153.369781 
	C69.327477,152.257919 68.934731,151.599823 68.541977,150.941711 
	C67.732018,148.863556 66.922050,146.785400 66.271133,144.077759 
	C66.309998,142.309799 66.189827,141.171341 66.069656,140.032867 
	C66.600777,134.134567 70.486427,130.337921 74.473389,126.599426 
	C75.911667,125.250793 77.321266,123.871574 79.356483,122.271423 
	C81.241302,121.662857 82.513580,121.289177 83.785866,120.915497 
	C84.439651,125.235435 85.049515,129.562698 85.768288,133.871796 
	C86.066437,135.659225 86.597427,137.407806 87.046860,139.568741 
z"/>
<path fill="#0C447F" opacity="1.000000" stroke="none" 
	d="
M120.350250,263.697083 
	C123.139565,261.777191 126.052406,260.403961 128.747803,258.688995 
	C132.001205,256.619019 135.070206,254.259201 138.591782,252.016464 
	C140.919357,257.433441 142.874176,262.858765 144.877579,268.654175 
	C141.374603,271.759766 137.913910,274.626038 134.237061,277.181335 
	C132.061066,278.693542 129.543518,279.714264 126.819870,280.954254 
	C124.432617,275.332458 122.405037,269.712402 120.350250,263.697083 
z"/>
<path fill="#0365A7" opacity="1.000000" stroke="none" 
	d="
M186.073914,220.993866 
	C185.054657,217.253052 184.035385,213.512253 183.189301,209.080261 
	C186.934296,198.657333 193.183548,190.688644 200.013458,183.102325 
	C202.485809,180.752487 204.958130,178.402649 207.746262,175.899994 
	C207.668732,176.983932 207.543106,178.404114 206.840729,179.429123 
	C199.670227,189.893707 197.043121,201.625641 196.583771,214.624908 
	C192.845337,217.103317 189.459625,219.048584 186.073914,220.993866 
z"/>
<path fill="#103B75" opacity="1.000000" stroke="none" 
	d="
M311.058105,285.552002 
	C308.041931,287.996490 305.036407,290.059143 301.968811,292.024933 
	C299.315399,293.725311 296.591492,295.315674 293.526367,296.962799 
	C293.108276,296.524719 293.062561,296.078552 293.242584,294.947205 
	C293.175079,290.505127 292.881805,286.748230 292.588562,282.991333 
	C292.443359,280.606445 292.298157,278.221558 292.621826,275.396759 
	C295.836487,273.477539 298.635651,272.087921 301.313538,270.494507 
	C304.175812,268.791382 306.923737,266.896027 309.721558,265.084564 
	C310.161652,271.765747 310.601746,278.446899 311.058105,285.552002 
z"/>
<path fill="#0C4C89" opacity="1.000000" stroke="none" 
	d="
M208.865051,254.683060 
	C206.291336,256.744019 203.482132,258.358124 200.887390,260.264191 
	C197.584686,262.690308 194.455627,265.352753 190.910660,268.097961 
	C190.015778,267.519257 189.461945,266.755890 188.832596,265.406067 
	C188.311234,264.194641 187.865372,263.569733 187.419495,262.944824 
	C187.334488,262.789581 187.249466,262.634369 187.085556,262.225525 
	C186.993683,261.470886 186.980698,260.969849 186.939911,260.089355 
	C187.521362,258.737946 187.964920,257.593994 188.766556,256.821747 
	C194.369507,251.424164 193.180084,245.172058 191.465759,238.368454 
	C194.225708,236.928925 196.702118,235.909821 199.178528,234.890717 
	C202.360641,241.382431 205.542755,247.874161 208.865051,254.683060 
z"/>
<path fill="#0E3A71" opacity="1.000000" stroke="none" 
	d="
M568.799316,87.225952 
	C568.682068,93.738426 568.247681,100.362320 567.448730,107.500862 
	C559.286133,113.686996 550.653870,118.763901 551.944397,130.584229 
	C552.210693,133.023758 551.986145,135.516876 551.655151,138.011185 
	C551.100159,138.043182 550.877869,138.049316 550.655579,138.055435 
	C550.498413,128.428497 550.045898,118.791443 550.375488,109.181213 
	C550.466797,106.517303 552.412415,103.509323 554.323181,101.397400 
	C558.779297,96.472237 563.731140,91.995659 568.799316,87.225952 
z"/>
<path fill="#0B4E8C" opacity="1.000000" stroke="none" 
	d="
M831.860718,249.681381 
	C828.486633,253.019989 825.040649,256.114166 821.435974,259.010834 
	C819.270569,260.750916 816.857605,262.182983 814.232056,263.903198 
	C811.942810,258.960022 809.977356,253.867188 808.274170,248.387878 
	C808.711670,247.998825 808.886963,247.996201 809.401917,247.916443 
	C813.127258,245.093506 816.442200,242.253448 819.926880,239.639771 
	C821.810974,238.226669 823.984924,237.200134 826.028076,235.999207 
	C827.926025,240.450714 829.824036,244.902237 831.860718,249.681381 
z"/>
<path fill="#0E4885" opacity="1.000000" stroke="none" 
	d="
M309.754913,264.658875 
	C306.923737,266.896027 304.175812,268.791382 301.313538,270.494507 
	C298.635651,272.087921 295.836487,273.477539 292.718384,274.956848 
	C291.963470,270.767181 291.580933,266.577576 290.999146,261.991577 
	C291.823669,260.183685 292.671417,258.591370 293.902588,257.392975 
	C298.470032,252.947052 303.163818,248.630920 308.391602,243.719818 
	C308.865906,250.686050 309.327087,257.459625 309.754913,264.658875 
z"/>
<path fill="#07599A" opacity="1.000000" stroke="none" 
	d="
M131.904587,231.643280 
	C128.420380,234.430847 124.695030,236.630569 121.358711,239.313980 
	C115.615898,243.932877 115.717606,244.059326 111.628601,238.151276 
	C110.231804,234.911987 109.111710,231.830948 108.403107,228.369080 
	C111.105782,226.928711 113.643463,226.203766 115.634659,224.736969 
	C119.297119,222.039108 122.638054,218.904770 126.112991,215.952347 
	C128.021515,221.059250 129.930008,226.166168 131.904587,231.643280 
z"/>
<path fill="#0562A5" opacity="1.000000" stroke="none" 
	d="
M126.063370,215.570572 
	C122.638054,218.904770 119.297119,222.039108 115.634659,224.736969 
	C113.643463,226.203766 111.105782,226.928711 108.422577,227.992935 
	C107.640518,226.642090 107.250481,225.286591 106.832954,223.189514 
	C105.872498,219.296860 104.939537,216.145752 104.006569,212.994659 
	C106.163857,212.002701 108.588623,211.357620 110.421089,209.944458 
	C113.916901,207.248566 117.074951,204.114685 120.709373,201.078903 
	C122.701607,205.726395 124.357674,210.457596 126.063370,215.570572 
z"/>
<path fill="#0A5292" opacity="1.000000" stroke="none" 
	d="
M550.622803,138.515961 
	C550.877869,138.049316 551.100159,138.043182 552.015869,137.984299 
	C554.847778,136.225403 556.977356,134.507874 559.127014,132.815918 
	C562.040649,130.522552 564.969604,128.248779 567.892029,125.966599 
	C567.935059,131.755493 567.874023,137.547791 568.062134,143.331970 
	C568.166809,146.552689 566.824219,148.169693 563.732666,148.880814 
	C559.713135,149.805359 555.762085,151.027634 551.375122,152.149261 
	C550.842407,147.776657 550.716187,143.376572 550.622803,138.515961 
z"/>
<path fill="#0E4682" opacity="1.000000" stroke="none" 
	d="
M720.844788,264.645020 
	C718.817749,266.002838 716.426331,266.661896 714.579468,268.047119 
	C711.062256,270.685150 707.856018,273.737823 703.974915,276.813110 
	C703.241760,277.010681 703.054382,277.013519 702.866943,277.016388 
	C702.673279,275.554565 702.479614,274.092773 702.426575,271.985779 
	C702.757263,269.309784 703.651001,266.811951 699.934570,267.373749 
	C698.812073,268.459045 697.689636,269.544342 696.275146,270.787354 
	C695.709717,270.068726 695.436279,269.192444 695.030518,267.986328 
	C702.353394,261.809753 709.808533,255.963028 717.817322,249.682144 
	C718.830811,254.766098 719.778564,259.520111 720.844788,264.645020 
z"/>
<path fill="#085697" opacity="1.000000" stroke="none" 
	d="
M825.993408,235.601349 
	C823.984924,237.200134 821.810974,238.226669 819.926880,239.639771 
	C816.442200,242.253448 813.127258,245.093506 809.314453,247.659821 
	C808.418823,246.966370 807.950317,246.452377 807.481812,245.938385 
	C807.326538,245.200363 807.171265,244.462357 807.172607,243.187958 
	C807.140808,242.079468 806.952393,241.507370 806.763977,240.935272 
	C806.520935,238.244080 806.277954,235.552872 806.142151,232.418350 
	C808.684204,230.963531 811.311340,230.256165 813.507874,228.867615 
	C816.633972,226.891479 819.443848,224.415039 822.730347,222.064178 
	C824.034180,226.385208 824.996460,230.794357 825.993408,235.601349 
z"/>
<path fill="#0C4680" opacity="1.000000" stroke="none" 
	d="
M296.869232,109.366119 
	C295.616730,115.306725 294.043793,121.339340 291.945221,127.772095 
	C286.065094,133.788727 280.710632,139.405212 275.356171,145.021698 
	C276.038635,134.669815 278.520020,125.209595 287.297150,118.390030 
	C290.662628,115.775139 293.481079,112.456230 296.869232,109.366119 
z"/>
<path fill="#0A5393" opacity="1.000000" stroke="none" 
	d="
M275.251099,145.379669 
	C280.710632,139.405212 286.065094,133.788727 291.765076,128.103470 
	C291.755829,132.713074 291.401093,137.391464 290.764923,142.700104 
	C288.308289,145.576721 286.133118,147.823074 283.957916,150.069427 
	C281.157715,149.270691 278.357483,148.471954 275.293396,147.449219 
	C275.068359,146.729355 275.107208,146.233505 275.251099,145.379669 
z"/>
<path fill="#01121D" opacity="1.000000" stroke="none" 
	d="
M200.009796,182.691376 
	C193.183548,190.688644 186.934296,198.657333 183.179047,208.681442 
	C180.047668,203.592773 180.163040,199.145264 185.398438,194.721237 
	C190.506042,190.405182 194.711609,185.021652 199.615814,179.960999 
	C199.947693,180.636963 199.976929,181.458710 200.009796,182.691376 
z"/>
<path fill="#055C9C" opacity="1.000000" stroke="none" 
	d="
M103.858322,212.665924 
	C104.939537,216.145752 105.872498,219.296860 106.860252,222.828339 
	C105.348808,219.836838 103.548111,216.551163 102.269325,213.073563 
	C100.163307,207.346268 98.395004,201.494797 96.478287,195.327576 
	C98.884850,200.752075 101.297462,206.544632 103.858322,212.665924 
z"/>
<path fill="#0A5292" opacity="1.000000" stroke="none" 
	d="
M717.622803,145.819397 
	C716.628418,149.467896 715.307251,153.241348 713.781616,157.598846 
	C712.289673,156.626389 710.855286,155.691452 709.220459,154.508484 
	C711.778687,151.488403 714.537354,148.716370 717.622803,145.819397 
z"/>
<path fill="#0F3971" opacity="1.000000" stroke="none" 
	d="
M228.397705,291.121216 
	C232.771500,290.787720 237.497131,290.656128 242.580170,290.709747 
	C238.208252,291.037689 233.478897,291.180359 228.397705,291.121216 
z"/>
<path fill="#132F64" opacity="1.000000" stroke="none" 
	d="
M292.474243,283.433197 
	C292.881805,286.748230 293.175079,290.505127 293.274719,294.611511 
	C292.840729,291.265686 292.600372,287.570374 292.474243,283.433197 
z"/>
<path fill="#142D62" opacity="1.000000" stroke="none" 
	d="
M752.389648,285.480286 
	C755.521362,284.661682 759.071289,283.949432 763.068848,283.280579 
	C759.946960,284.078186 756.377319,284.832397 752.389648,285.480286 
z"/>
<path fill="#142D62" opacity="1.000000" stroke="none" 
	d="
M718.348022,289.609131 
	C719.736389,289.161652 721.510437,288.798126 723.584717,288.582825 
	C722.167908,289.051758 720.450745,289.372437 718.348022,289.609131 
z"/>
<path fill="#142D62" opacity="1.000000" stroke="none" 
	d="
M734.347107,287.563843 
	C735.748352,287.156830 737.535278,286.826355 739.619934,286.656677 
	C738.189331,287.091797 736.461121,287.366089 734.347107,287.563843 
z"/>
<path fill="#142D62" opacity="1.000000" stroke="none" 
	d="
M743.342712,286.518921 
	C744.750122,286.126312 746.542542,285.818115 748.630310,285.675323 
	C747.192993,286.094910 745.460388,286.349091 743.342712,286.518921 
z"/>
<path fill="#142D62" opacity="1.000000" stroke="none" 
	d="
M700.186035,267.658630 
	C703.651001,266.811951 702.757263,269.309784 702.423218,271.617676 
	C701.665344,270.577698 701.051453,269.260590 700.186035,267.658630 
z"/>
<path fill="#0F3D77" opacity="1.000000" stroke="none" 
	d="
M83.840042,120.532883 
	C82.513580,121.289177 81.241302,121.662857 79.638123,122.080688 
	C80.603546,120.747299 81.899864,119.369766 83.507919,117.913147 
	C83.844505,118.606133 83.869370,119.378204 83.840042,120.532883 
z"/>
<path fill="#055C9C" opacity="1.000000" stroke="none" 
	d="
M89.526962,192.729019 
	C91.024391,192.646652 92.801552,192.823105 94.804955,193.290924 
	C93.289696,193.384155 91.548195,193.186005 89.526962,192.729019 
z"/>
<path fill="#142D62" opacity="1.000000" stroke="none" 
	d="
M726.325989,288.517944 
	C727.437622,288.124847 728.911499,287.826447 730.658813,287.690674 
	C729.517639,288.106415 728.102905,288.359528 726.325989,288.517944 
z"/>
<path fill="#0F3D77" opacity="1.000000" stroke="none" 
	d="
M65.898758,140.282410 
	C66.189827,141.171341 66.309998,142.309799 66.261719,143.703415 
	C65.971474,142.816345 65.849670,141.674149 65.898758,140.282410 
z"/>
<path fill="#0F3971" opacity="1.000000" stroke="none" 
	d="
M245.334641,290.533997 
	C245.852646,290.181305 246.674026,289.885437 247.710632,289.727020 
	C247.163254,290.106598 246.400620,290.348724 245.334641,290.533997 
z"/>
<path fill="#0F3971" opacity="1.000000" stroke="none" 
	d="
M222.262756,290.171906 
	C222.904617,290.026062 223.805237,290.059814 224.837112,290.311707 
	C224.152756,290.470428 223.337112,290.410950 222.262756,290.171906 
z"/>
<path fill="#055C9C" opacity="1.000000" stroke="none" 
	d="
M82.074898,186.290726 
	C82.703735,186.710190 83.356407,187.436935 84.045876,188.475342 
	C83.421356,188.057343 82.760040,187.327667 82.074898,186.290726 
z"/>
<path fill="#0F3971" opacity="1.000000" stroke="none" 
	d="
M187.418457,263.241852 
	C187.865372,263.569733 188.311234,264.194641 188.758972,265.128906 
	C188.313049,264.805145 187.865219,264.171997 187.418457,263.241852 
z"/>
<path fill="#142D62" opacity="1.000000" stroke="none" 
	d="
M702.759399,277.202942 
	C703.054382,277.013519 703.241760,277.010681 703.709961,277.019897 
	C703.824524,277.518982 703.658264,278.006042 703.344482,278.704590 
	C703.015198,278.407196 702.833496,277.898346 702.759399,277.202942 
z"/>
<path fill="#0F3D77" opacity="1.000000" stroke="none" 
	d="
M68.538330,151.233795 
	C68.934731,151.599823 69.327477,152.257919 69.702980,153.223816 
	C69.302055,152.863037 68.918373,152.194458 68.538330,151.233795 
z"/>
<path fill="#0C447F" opacity="1.000000" stroke="none" 
	d="
M117.320389,255.255508 
	C117.662521,255.516968 117.988213,256.056580 118.197388,256.780701 
	C117.821892,256.488037 117.562927,256.010864 117.320389,255.255508 
z"/>
<path fill="#0F3971" opacity="1.000000" stroke="none" 
	d="
M206.711365,284.373535 
	C207.247375,284.468384 207.959076,284.814728 208.821472,285.419434 
	C208.277145,285.326843 207.582092,284.975922 206.711365,284.373535 
z"/>
<path fill="#0C447F" opacity="1.000000" stroke="none" 
	d="
M806.683594,241.194397 
	C806.952393,241.507370 807.140808,242.079468 807.197388,242.809204 
	C806.911377,242.462402 806.757263,241.957962 806.683594,241.194397 
z"/>
<path fill="#0C447F" opacity="1.000000" stroke="none" 
	d="
M807.434448,246.212494 
	C807.950317,246.452377 808.418823,246.966370 808.974731,247.736984 
	C808.886963,247.996201 808.711670,247.998825 808.273560,247.998657 
	C807.802795,247.492798 807.594910,246.989716 807.434448,246.212494 
z"/>
<path fill="#0F3971" opacity="1.000000" stroke="none" 
	d="
M218.216248,289.154907 
	C218.595734,289.051147 219.188889,289.107300 219.879242,289.347656 
	C219.460922,289.459503 218.945404,289.387146 218.216248,289.154907 
z"/>
<path fill="#0F3D77" opacity="1.000000" stroke="none" 
	d="
M84.587219,116.803345 
	C84.655533,116.981834 84.489265,117.301399 84.079735,117.750748 
	C84.008530,117.568489 84.180580,117.256454 84.587219,116.803345 
z"/>
<path fill="#FCCA02" opacity="1.000000" stroke="none" 
	d="
M613.038879,260.557800 
	C603.908936,261.073700 594.782593,261.746735 585.645569,261.961029 
	C583.997009,261.999664 582.304077,260.152710 579.465210,258.495331 
	C576.883057,259.037537 572.722961,260.302032 568.477783,260.737274 
	C545.973206,263.044556 529.437866,250.123154 524.824646,226.859268 
	C518.000793,192.447418 541.234253,163.455719 577.855591,160.684433 
	C578.985413,160.598907 580.114868,160.507584 581.953796,160.363327 
	C581.953796,156.758820 581.986938,153.325821 581.948120,149.893646 
	C581.758118,133.090179 581.604431,116.285912 581.293945,99.484573 
	C581.239807,96.557961 582.205383,94.971550 584.935974,93.817818 
	C593.057312,90.386322 601.065918,86.688095 609.515869,83.512497 
	C610.276917,94.399353 610.769653,104.865242 610.977905,115.336800 
	C611.424438,137.794876 611.761841,160.255341 612.074097,182.715805 
	C612.434875,208.662582 612.720581,234.610397 613.038879,260.557800 
M564.721252,184.140381 
	C556.476257,188.789383 551.806824,197.201218 553.127441,205.025940 
	C554.199097,211.375458 560.602173,217.016068 568.876648,218.548767 
	C571.684509,219.068848 575.067139,220.121735 577.048279,215.616852 
	C581.000488,216.018921 582.342041,214.145416 582.032837,210.340515 
	C581.779114,207.218735 582.143860,204.046951 581.895142,200.924377 
	C581.793640,199.650055 581.117004,197.794952 580.153320,197.321945 
	C575.419861,194.998550 575.218811,190.867676 575.904297,186.726120 
	C576.437500,183.504822 577.964783,180.448074 579.050232,177.318192 
	C578.804138,176.969269 578.557983,176.620346 578.311829,176.271408 
	C574.030884,178.872192 569.749939,181.472961 564.721252,184.140381 
z"/>
<path fill="#FCCA03" opacity="1.000000" stroke="none" 
	d="
M419.877045,188.932587 
	C407.451935,198.499649 395.026794,208.066711 381.960938,217.829956 
	C375.016144,222.414734 374.988739,222.898514 380.848846,227.341980 
	C392.379608,236.085236 403.929901,244.802948 415.425110,253.592682 
	C416.705170,254.571503 418.585663,255.902100 418.649658,257.148529 
	C419.045441,264.857178 419.000702,272.588409 419.102295,280.312164 
	C400.297729,266.914825 381.493134,253.517471 362.088440,239.692596 
	C361.933960,241.880020 361.832123,243.321625 361.295654,245.049469 
	C359.479431,245.131378 358.097931,244.927032 357.072021,244.775299 
	C357.072021,256.885834 357.072021,268.534241 357.072021,280.182648 
	C347.417358,280.396332 337.759705,280.525696 328.109711,280.869965 
	C324.782776,280.988617 323.925354,279.616577 323.770905,276.477386 
	C321.643402,233.236603 319.398865,190.001556 317.166748,146.765961 
	C316.998657,143.510193 316.706665,140.260834 316.440155,136.563263 
	C312.315582,137.334763 308.945923,137.965073 304.344788,138.825714 
	C305.829437,131.972717 307.036743,125.712196 308.663300,119.562592 
	C308.937225,118.526894 310.945190,117.790268 312.282013,117.220695 
	C322.396667,112.911079 332.543762,108.677620 343.313904,104.736603 
	C344.294312,106.142975 344.878174,107.217102 344.953278,108.325699 
	C346.040649,124.376648 347.078796,140.431015 348.089081,156.487061 
	C348.870483,168.905365 349.468719,181.336792 350.403748,193.743149 
	C350.839417,199.523621 352.224915,199.929657 357.045013,196.319397 
	C366.325775,191.465591 375.606567,186.611801 385.678650,181.718079 
	C396.561462,183.106674 406.665955,184.454529 416.727020,186.072479 
	C417.900024,186.261108 418.832855,187.942978 419.877045,188.932587 
z"/>
<path fill="#FCCA03" opacity="1.000000" stroke="none" 
	d="
M907.986023,249.304657 
	C892.246094,262.752228 869.405457,265.040649 854.233521,254.237579 
	C842.295654,245.737259 838.139343,232.999603 836.907959,219.122070 
	C834.645508,193.624695 847.673401,177.270462 869.784302,166.029877 
	C871.276672,165.540482 872.098694,165.116333 872.920715,164.692169 
	C872.920715,164.692154 872.871094,164.795517 873.258667,164.869873 
	C878.111450,164.649048 882.655334,163.674515 887.027832,164.180557 
	C902.862183,166.013062 917.692871,170.554596 923.131287,187.676926 
	C929.197937,206.776901 927.171448,225.117554 914.233093,241.381744 
	C913.049377,242.869781 912.279053,244.686737 911.316833,246.350998 
	C911.316833,246.350998 911.300293,246.265411 911.026001,246.323151 
	C910.379333,246.888641 910.006897,247.396393 909.634399,247.904160 
	C909.634460,247.904175 909.617920,248.024551 909.226379,248.128479 
	C908.551941,248.589828 908.268982,248.947250 907.986023,249.304657 
M894.936829,215.413025 
	C906.800232,210.837540 914.302368,195.869064 910.641357,184.911514 
	C907.131958,188.442017 903.781982,192.544144 899.664856,195.619186 
	C897.837708,196.983871 893.800903,197.340881 891.971375,196.208908 
	C890.101929,195.052155 888.697388,191.415390 888.920715,189.036270 
	C889.209229,185.963089 891.103333,182.935806 892.745605,180.147659 
	C893.377625,179.074722 895.217529,178.713318 896.507141,178.027710 
	C896.037842,177.506668 895.568604,176.985626 895.099304,176.464584 
	C888.534973,176.708344 883.434937,180.324371 877.659485,184.143829 
	C874.051392,188.318619 869.594299,192.037643 867.047424,196.782104 
	C863.770203,202.886887 866.597595,210.274155 872.286194,214.355148 
	C879.991577,219.882980 888.593750,220.430801 894.936829,215.413025 
z"/>
<path fill="#FCCA03" opacity="1.000000" stroke="none" 
	d="
M694.015869,251.194092 
	C684.284546,258.431519 673.371399,261.732208 661.266541,260.860657 
	C643.159363,259.556885 629.853821,246.320267 626.233765,226.117096 
	C621.374451,198.997498 632.072266,178.660522 658.647156,165.920380 
	C673.163574,162.199265 686.271362,163.968750 698.374512,171.292648 
	C702.098022,173.545807 705.697144,176.774948 708.040283,180.404755 
	C717.943726,195.746780 716.718994,222.052811 705.945557,236.821091 
	C703.222107,240.554337 700.568420,244.338486 697.882690,248.099243 
	C697.237915,248.682022 696.593140,249.264816 695.394775,250.042587 
	C694.566101,250.556427 694.291016,250.875259 694.015869,251.194092 
M664.960266,185.961395 
	C664.960266,185.961395 664.984497,185.951965 664.263367,185.921982 
	C657.660217,189.235199 654.757812,195.194214 654.345215,201.981674 
	C653.913147,209.091217 658.649292,213.580597 664.658020,216.443878 
	C670.883301,219.410309 677.248352,220.658188 683.868225,215.265335 
	C695.575256,210.280319 703.543152,193.659912 698.441345,184.311188 
	C697.595276,185.656143 696.819885,186.888687 695.386475,188.010742 
	C689.259460,187.395279 689.658020,193.331711 686.422424,196.710815 
	C680.782227,197.864426 677.532776,196.383438 677.548340,191.488541 
	C677.560059,187.814545 679.334167,184.035263 680.863037,180.538742 
	C681.379517,179.357376 683.550110,178.899277 684.964783,178.110626 
	C684.437439,177.480103 683.910156,176.849579 683.382812,176.219040 
	C677.255615,177.221893 671.796875,179.783325 666.372253,184.028946 
	C665.899658,184.681549 665.427063,185.334152 664.960266,185.961395 
z"/>
<path fill="#FCCA03" opacity="1.000000" stroke="none" 
	d="
M279.091522,251.435699 
	C265.889648,260.624115 251.699493,263.765625 236.131470,258.447021 
	C228.407547,255.808243 222.359985,250.919968 218.414536,243.886047 
	C209.274292,227.590836 207.336624,210.434662 214.820038,193.107681 
	C220.323288,180.365494 230.944092,172.280212 243.798737,166.015808 
	C247.005356,165.480148 249.430832,164.845764 251.897064,164.519043 
	C265.654785,162.696442 277.956970,166.318512 288.675537,174.988312 
	C303.614807,187.072083 302.797424,220.077347 292.311523,235.344604 
	C289.047943,240.096313 285.412781,244.592773 281.947754,249.206085 
	C281.844696,249.452133 281.676147,249.639191 280.932953,249.892517 
	C279.979675,250.490417 279.535614,250.963058 279.091522,251.435699 
M268.927948,215.375381 
	C280.756989,210.795425 289.207977,193.385315 284.306122,185.433945 
	C280.650421,188.915710 277.240692,193.052414 272.995941,195.977356 
	C267.873108,199.507339 262.536926,196.554733 262.839203,190.348740 
	C263.010620,186.829361 265.068604,183.305099 266.730011,180.011566 
	C267.255859,178.969162 269.247223,178.666000 270.567902,178.024521 
	C270.058899,177.471603 269.549896,176.918671 269.040894,176.365738 
	C262.495422,176.753876 257.308807,180.233780 251.551437,184.125977 
	C248.311615,187.561615 244.355499,190.569153 241.989853,194.527252 
	C237.818909,201.505844 239.569931,208.934326 245.441452,213.720047 
	C252.873489,219.777710 261.771332,220.554520 268.927948,215.375381 
z"/>
<path fill="#FCCA03" opacity="1.000000" stroke="none" 
	d="
M510.889282,248.019775 
	C499.597351,256.175903 486.559631,259.369843 473.052338,260.679565 
	C466.664337,261.298981 460.041260,261.299011 453.708832,260.350372 
	C434.154755,257.421143 424.181274,246.007782 423.392365,226.235153 
	C422.848663,212.608490 426.244629,199.830856 432.978546,188.033920 
	C437.716949,179.732788 445.570282,174.997452 454.719269,171.017181 
	C457.607178,170.555374 459.714355,170.077515 461.836792,169.681137 
	C477.787018,166.702469 492.978912,168.236588 506.840271,177.395248 
	C511.873627,180.720963 512.018799,181.215912 508.254791,185.763062 
	C498.709381,197.294373 489.042053,208.724777 479.432007,220.202667 
	C475.436127,224.975250 471.461731,229.765839 467.477570,234.548233 
	C467.747742,234.978470 468.017944,235.408691 468.288147,235.838913 
	C472.518402,235.290253 476.746918,234.735535 480.240326,231.573318 
	C487.119629,228.585907 493.287903,224.688354 497.971893,218.250519 
	C501.987793,222.341461 505.422577,226.358002 508.887207,230.348587 
	C516.157654,238.722855 516.164124,238.717270 510.889282,248.019775 
M454.811584,196.248245 
	C445.086060,201.189606 441.435486,216.733948 448.134796,225.338211 
	C449.797516,224.406281 451.488007,223.458755 453.798462,222.445160 
	C462.095215,212.618454 470.391968,202.791733 478.797668,192.836044 
	C471.021027,188.343109 463.464630,189.675629 454.811584,196.248245 
z"/>
<path fill="#FDCA02" opacity="1.000000" stroke="none" 
	d="
M767.919800,254.619873 
	C757.538147,255.930435 747.151489,257.202850 736.778198,258.576080 
	C733.877197,258.960114 732.983337,257.666046 732.817566,254.992294 
	C731.893494,240.081161 730.570679,225.188354 729.962280,210.265717 
	C729.265076,193.165482 729.172058,176.040604 729.330505,158.450592 
	C736.922058,157.043808 743.981262,155.878769 751.088135,155.324020 
	C753.231323,155.156723 755.481506,156.773849 757.729065,157.409470 
	C759.884033,158.018875 762.267334,159.192245 764.256897,158.761795 
	C770.578674,157.394058 776.763489,155.393692 783.458740,153.694458 
	C786.074707,153.792786 788.234009,153.813507 790.391785,153.879547 
	C804.366028,154.307251 818.868774,166.319443 821.951416,180.008636 
	C814.540466,184.982224 807.129578,189.955795 799.767517,194.896561 
	C793.405273,189.828552 791.474487,175.417389 778.297607,185.969452 
	C775.578918,188.187744 772.395813,189.847031 771.627075,192.271774 
	C769.552490,198.815750 767.472473,205.654404 767.267273,212.432816 
	C766.842163,226.475708 767.630432,240.555344 767.919800,254.619873 
z"/>
<path fill="#B69409" opacity="1.000000" stroke="none" 
	d="
M613.425049,260.656921 
	C612.720581,234.610397 612.434875,208.662582 612.074097,182.715805 
	C611.761841,160.255341 611.424438,137.794876 610.977905,115.336800 
	C610.769653,104.865242 610.276917,94.399353 609.866089,83.465012 
	C611.644226,82.050911 613.469360,81.102676 616.482239,79.537315 
	C616.482239,86.033653 616.402832,91.306717 616.495300,96.576759 
	C617.040894,127.666534 617.618408,158.755753 618.201599,189.844849 
	C618.606689,211.441315 618.956970,233.039429 619.525879,254.631683 
	C619.639954,258.961456 618.620544,261.414734 613.425049,260.656921 
z"/>
<path fill="#B4930C" opacity="1.000000" stroke="none" 
	d="
M698.229980,248.028580 
	C700.568420,244.338486 703.222107,240.554337 705.945557,236.821091 
	C716.718994,222.052811 717.943726,195.746780 708.040283,180.404755 
	C705.697144,176.774948 702.098022,173.545807 698.374512,171.292648 
	C686.271362,163.968750 673.163574,162.199265 658.976074,165.838715 
	C669.300232,159.539474 680.760132,159.308350 692.303345,162.597855 
	C711.438843,168.050980 720.455200,180.420837 720.716492,201.532776 
	C720.951721,220.533737 713.634399,236.144135 698.229980,248.028580 
z"/>
<path fill="#B5940B" opacity="1.000000" stroke="none" 
	d="
M282.297180,249.133820 
	C285.412781,244.592773 289.047943,240.096313 292.311523,235.344604 
	C302.797424,220.077347 303.614807,187.072083 288.675537,174.988312 
	C277.956970,166.318512 265.654785,162.696442 251.897064,164.519043 
	C249.430832,164.845764 247.005356,165.480148 244.132477,165.936584 
	C254.429962,159.595505 265.884186,159.317459 277.438690,162.533325 
	C297.091431,168.003082 306.272278,181.287369 306.071075,202.761276 
	C305.889862,222.095612 297.906189,237.398071 282.297180,249.133820 
z"/>
<path fill="#B5940B" opacity="1.000000" stroke="none" 
	d="
M911.656555,246.300858 
	C912.279053,244.686737 913.049377,242.869781 914.233093,241.381744 
	C927.171448,225.117554 929.197937,206.776901 923.131287,187.676926 
	C917.692871,170.554596 902.862183,166.013062 887.027832,164.180557 
	C882.655334,163.674515 878.111450,164.649048 873.207886,164.843353 
	C882.948486,159.284042 893.570129,159.762299 904.243896,162.690109 
	C920.905396,167.260361 930.069214,178.245697 931.761353,195.490402 
	C933.751343,215.771011 927.890686,232.954056 911.656555,246.300858 
z"/>
<path fill="#B79408" opacity="1.000000" stroke="none" 
	d="
M356.988953,195.863358 
	C352.224915,199.929657 350.839417,199.523621 350.403748,193.743149 
	C349.468719,181.336792 348.870483,168.905365 348.089081,156.487061 
	C347.078796,140.431015 346.040649,124.376648 344.953278,108.325699 
	C344.878174,107.217102 344.294312,106.142975 343.674194,104.668884 
	C345.429260,103.326683 347.457214,102.368423 350.612335,100.877533 
	C352.765472,133.079666 354.849182,164.243500 356.988953,195.863358 
z"/>
<path fill="#B5940A" opacity="1.000000" stroke="none" 
	d="
M419.237732,280.591370 
	C419.000702,272.588409 419.045441,264.857178 418.649658,257.148529 
	C418.585663,255.902100 416.705170,254.571503 415.425110,253.592682 
	C403.929901,244.802948 392.379608,236.085236 380.848846,227.341980 
	C374.988739,222.898514 375.016144,222.414734 381.664825,217.979584 
	C383.111816,219.584274 383.879913,221.668488 385.369385,222.818283 
	C397.359558,232.074402 409.575623,241.040115 421.479187,250.404068 
	C423.400604,251.915543 424.989014,254.872131 425.233551,257.310883 
	C426.137054,266.322968 426.412354,275.398041 426.996552,285.736877 
	C423.705292,283.635925 421.539215,282.253235 419.237732,280.591370 
z"/>
<path fill="#B49510" opacity="1.000000" stroke="none" 
	d="
M479.848907,231.524155 
	C476.746918,234.735535 472.518402,235.290253 468.288147,235.838913 
	C468.017944,235.408691 467.747742,234.978470 467.477570,234.548233 
	C471.461731,229.765839 475.436127,224.975250 479.432007,220.202667 
	C489.042053,208.724777 498.709381,197.294373 508.254791,185.763062 
	C512.018799,181.215912 511.873627,180.720963 506.840271,177.395248 
	C492.978912,168.236588 477.787018,166.702469 461.836792,169.681137 
	C459.714355,170.077515 457.607178,170.555374 455.051544,170.943756 
	C470.387024,161.128540 501.173706,163.538910 515.108276,175.414124 
	C517.998169,177.876938 516.758179,179.469406 515.009521,181.549911 
	C502.172394,196.823349 489.364441,212.121384 476.564850,227.426346 
	C475.550262,228.639557 474.668152,229.963562 472.904907,232.341278 
	C475.993958,231.932877 477.725739,231.703934 479.848907,231.524155 
z"/>
<path fill="#B5940C" opacity="1.000000" stroke="none" 
	d="
M768.325745,254.690369 
	C767.630432,240.555344 766.842163,226.475708 767.267273,212.432816 
	C767.472473,205.654404 769.552490,198.815750 771.627075,192.271774 
	C772.395813,189.847031 775.578918,188.187744 778.031006,186.163925 
	C773.972595,194.649979 772.748718,203.828186 772.919617,213.234146 
	C773.134094,225.039383 773.407654,236.847900 773.968140,248.640137 
	C774.163086,252.742233 773.362244,255.176376 768.325745,254.690369 
z"/>
<path fill="#B3930D" opacity="1.000000" stroke="none" 
	d="
M822.302612,179.959137 
	C818.868774,166.319443 804.366028,154.307251 790.391785,153.879547 
	C788.234009,153.813507 786.074707,153.792786 783.459167,153.426971 
	C783.002441,152.741135 783.002686,152.379425 783.002930,152.017731 
	C799.017334,146.824753 819.041199,155.109360 825.893188,169.763138 
	C828.764648,175.904037 828.622620,176.348770 822.302612,179.959137 
z"/>
<path fill="#0E4885" opacity="1.000000" stroke="none" 
	d="
M567.919067,125.502396 
	C564.969604,128.248779 562.040649,130.522552 559.127014,132.815918 
	C556.977356,134.507874 554.847778,136.225403 552.348511,137.958420 
	C551.986145,135.516876 552.210693,133.023758 551.944397,130.584229 
	C550.653870,118.763901 559.286133,113.686996 567.415649,107.961533 
	C567.813416,113.617760 567.879761,119.327965 567.919067,125.502396 
z"/>
<path fill="#B5940C" opacity="1.000000" stroke="none" 
	d="
M511.238342,247.968033 
	C516.164124,238.717270 516.157654,238.722855 508.887207,230.348587 
	C505.422577,226.358002 501.987793,222.341461 498.288940,218.113815 
	C499.236084,216.161530 500.433746,214.432114 502.191010,211.894653 
	C507.283844,217.989304 511.915009,223.523956 516.537903,229.065475 
	C523.090576,236.920212 522.883911,238.961426 514.816528,245.600113 
	C513.795959,246.439957 512.666443,247.147461 511.238342,247.968033 
z"/>
<path fill="#B49613" opacity="1.000000" stroke="none" 
	d="
M357.390015,280.316650 
	C357.072021,268.534241 357.072021,256.885834 357.072021,244.775299 
	C358.097931,244.927032 359.479431,245.131378 361.269775,245.435974 
	C362.315125,255.952286 362.958862,266.367920 363.585052,276.784607 
	C363.873383,281.581665 360.306122,280.251953 357.390015,280.316650 
z"/>
<path fill="#095B9C" opacity="1.000000" stroke="none" 
	d="
M199.146423,234.474213 
	C196.702118,235.909821 194.225708,236.928925 191.389923,237.986679 
	C189.419495,232.597580 187.808426,227.169800 186.135651,221.367950 
	C189.459625,219.048584 192.845337,217.103317 196.564056,215.080078 
	C197.636154,221.353973 198.375244,227.705841 199.146423,234.474213 
z"/>
<path fill="#B49510" opacity="1.000000" stroke="none" 
	d="
M782.602051,152.007095 
	C783.002686,152.379425 783.002441,152.741135 783.001709,153.370331 
	C776.763489,155.393692 770.578674,157.394058 764.256897,158.761795 
	C762.267334,159.192245 759.884033,158.018875 757.729065,157.409470 
	C755.481506,156.773849 753.231323,155.156723 751.088135,155.324020 
	C743.981262,155.878769 736.922058,157.043808 729.416626,157.988800 
	C730.007263,156.944473 730.908508,155.127106 732.063049,154.948654 
	C740.739563,153.607697 749.452332,152.449371 758.189026,151.594879 
	C759.837402,151.433670 762.211914,152.416656 763.256958,153.688660 
	C765.365479,156.255203 767.414185,156.277084 770.237061,155.326096 
	C774.154419,154.006378 778.206726,153.087143 782.602051,152.007095 
z"/>
<path fill="#B49510" opacity="1.000000" stroke="none" 
	d="
M420.219604,188.866440 
	C418.832855,187.942978 417.900024,186.261108 416.727020,186.072479 
	C406.665955,184.454529 396.561462,183.106674 386.000702,181.589142 
	C388.883087,178.583908 392.559631,177.739548 397.057037,178.585495 
	C404.905487,180.061813 412.866608,180.933914 420.770996,182.122528 
	C422.499512,182.382462 424.188080,182.908173 427.095306,183.595078 
	C424.308838,185.815170 422.435486,187.307724 420.219604,188.866440 
z"/>
<path fill="#095B9C" opacity="1.000000" stroke="none" 
	d="
M284.245483,150.264236 
	C286.133118,147.823074 288.308289,145.576721 290.766785,143.148987 
	C293.657806,147.065918 296.339325,150.832047 301.473480,152.468018 
	C302.969940,152.944855 303.538513,156.333649 304.532410,158.387680 
	C304.042206,158.751251 303.552002,159.114838 303.061768,159.478409 
	C296.885559,156.471954 290.709320,153.465500 284.245483,150.264236 
z"/>
<path fill="#095B9C" opacity="1.000000" stroke="none" 
	d="
M404.758484,218.396774 
	C406.149750,217.203857 407.405365,216.305405 409.478271,214.822144 
	C409.478271,218.281876 409.478271,220.652969 409.478271,223.024063 
	C409.046051,223.234299 408.613861,223.444534 408.181641,223.654770 
	C406.995392,222.000259 405.809113,220.345734 404.758484,218.396774 
z"/>
<path fill="#B5940B" opacity="1.000000" stroke="none" 
	d="
M872.568726,164.633682 
	C872.098694,165.116333 871.276672,165.540482 870.099548,165.890732 
	C870.568604,165.402939 871.392700,164.989059 872.568726,164.633682 
z"/>
<path fill="#B5940B" opacity="1.000000" stroke="none" 
	d="
M279.421143,251.376236 
	C279.535614,250.963058 279.979675,250.490417 280.753479,249.959930 
	C280.639069,250.373642 280.194916,250.845215 279.421143,251.376236 
z"/>
<path fill="#B5940B" opacity="1.000000" stroke="none" 
	d="
M909.966492,247.849167 
	C910.006897,247.396393 910.379333,246.888641 911.069336,246.318115 
	C911.024109,246.768311 910.661377,247.281250 909.966492,247.849167 
z"/>
<path fill="#B4930C" opacity="1.000000" stroke="none" 
	d="
M694.337891,251.127472 
	C694.291016,250.875259 694.566101,250.556427 695.153503,250.146790 
	C695.197083,250.390945 694.928467,250.725891 694.337891,251.127472 
z"/>
<path fill="#B5940B" opacity="1.000000" stroke="none" 
	d="
M908.327148,249.209229 
	C908.268982,248.947250 908.551941,248.589828 909.166077,248.120956 
	C909.221008,248.377594 908.944702,248.745682 908.327148,249.209229 
z"/>
<path fill="#FCCA03" opacity="1.000000" stroke="none" 
	d="
M168.875092,190.094788 
	C167.748520,191.228455 166.621933,192.362122 164.881836,193.713806 
	C159.527451,195.859222 158.282013,199.224533 160.082733,203.919479 
	C160.556213,205.153931 160.807816,206.473618 161.159286,207.754700 
	C165.156342,222.323639 169.153015,236.892700 173.149796,251.461716 
	C168.253372,255.068024 163.356949,258.674316 157.552765,262.949219 
	C144.784256,226.553558 132.272491,190.889709 119.507690,154.504639 
	C116.568672,157.119980 114.171936,159.252777 110.803223,162.250504 
	C106.353012,150.238373 102.175949,138.963531 98.287933,127.162109 
	C104.092506,124.786118 109.559982,122.775139 115.132530,121.117409 
	C132.380646,115.986404 149.732712,111.385628 167.983109,111.989403 
	C177.477295,112.303497 186.651581,113.944489 194.183395,120.134438 
	C204.276093,128.429031 207.513580,137.854050 201.108475,148.620590 
	C196.124802,156.997757 190.038376,164.757278 184.044464,172.482819 
	C179.301178,178.596451 173.954071,184.241608 168.875092,190.094788 
M157.733505,171.900177 
	C161.922668,167.540695 166.325073,163.362091 170.228424,158.760193 
	C172.977417,155.519211 175.211670,151.798309 177.362366,148.108994 
	C178.714691,145.789169 177.863022,143.829132 175.026169,143.411194 
	C166.252029,142.118576 157.924332,142.965683 150.093460,149.048645 
	C148.530914,150.569763 145.424637,152.399902 145.657196,153.561707 
	C147.129868,160.918991 149.341446,168.128372 151.473724,175.993179 
	C153.925323,174.142044 155.485550,172.963959 157.733505,171.900177 
z"/>
<path fill="#B4940F" opacity="1.000000" stroke="none" 
	d="
M169.220047,190.017456 
	C173.954071,184.241608 179.301178,178.596451 184.044464,172.482819 
	C190.038376,164.757278 196.124802,156.997757 201.108475,148.620590 
	C207.513580,137.854050 204.276093,128.429031 194.183395,120.134438 
	C186.651581,113.944489 177.477295,112.303497 167.983109,111.989403 
	C149.732712,111.385628 132.380646,115.986404 115.132530,121.117409 
	C109.559982,122.775139 104.092506,124.786118 98.242188,126.785889 
	C98.514862,126.062698 98.949905,124.652832 99.754997,124.393997 
	C119.846756,117.934547 139.784134,110.701515 161.028564,108.991158 
	C168.115662,108.420586 175.340225,108.638969 182.430923,109.281082 
	C190.055359,109.971527 196.803482,113.301033 202.416382,118.618073 
	C211.020050,126.768250 212.683456,134.472107 207.236694,145.157562 
	C200.135498,159.088715 189.486038,170.380936 178.679901,181.467041 
	C175.787888,184.433990 172.611069,187.123322 169.220047,190.017456 
z"/>
<path fill="#B5940B" opacity="1.000000" stroke="none" 
	d="
M173.510498,251.378769 
	C169.153015,236.892700 165.156342,222.323639 161.159286,207.754700 
	C160.807816,206.473618 160.556213,205.153931 160.082733,203.919479 
	C158.282013,199.224533 159.527451,195.859222 164.631866,193.882050 
	C165.276947,195.782120 165.349136,197.790268 165.873428,199.672501 
	C169.702271,213.418304 173.378525,227.215012 177.640808,240.827240 
	C179.196930,245.796951 178.840454,249.131012 173.510498,251.378769 
z"/>
<path fill="#3E63A4" opacity="1.000000" stroke="none" 
	d="
M565.468994,184.073730 
	C569.749939,181.472961 574.030884,178.872192 578.311829,176.271408 
	C578.557983,176.620346 578.804138,176.969269 579.050232,177.318192 
	C577.964783,180.448074 576.437500,183.504822 575.904297,186.726120 
	C575.218811,190.867676 575.419861,194.998550 580.153320,197.321945 
	C581.117004,197.794952 581.793640,199.650055 581.895142,200.924377 
	C582.143860,204.046951 581.779114,207.218735 582.032837,210.340515 
	C582.342041,214.145416 581.000488,216.018921 576.268677,215.492188 
	C558.940186,211.307999 552.896851,198.403473 565.277771,184.527939 
	C565.381287,184.411987 565.406982,184.226654 565.468994,184.073730 
z"/>
<path fill="#B7950B" opacity="1.000000" stroke="none" 
	d="
M565.095093,184.107056 
	C565.406982,184.226654 565.381287,184.411987 565.277771,184.527939 
	C552.896851,198.403473 558.940186,211.307999 575.844360,215.572205 
	C575.067139,220.121735 571.684509,219.068848 568.876648,218.548767 
	C560.602173,217.016068 554.199097,211.375458 553.127441,205.025940 
	C551.806824,197.201218 556.476257,188.789383 565.095093,184.107056 
z"/>
<path fill="#3E63A4" opacity="1.000000" stroke="none" 
	d="
M878.393799,184.076172 
	C883.434937,180.324371 888.534973,176.708344 895.099304,176.464584 
	C895.568604,176.985626 896.037842,177.506668 896.507141,178.027710 
	C895.217529,178.713318 893.377625,179.074722 892.745605,180.147659 
	C891.103333,182.935806 889.209229,185.963089 888.920715,189.036270 
	C888.697388,191.415390 890.101929,195.052155 891.971375,196.208908 
	C893.800903,197.340881 897.837708,196.983871 899.664856,195.619186 
	C903.781982,192.544144 907.131958,188.442017 910.641357,184.911514 
	C914.302368,195.869064 906.800232,210.837540 894.150513,215.477814 
	C892.534607,215.520004 891.696899,215.564514 890.876770,215.464310 
	C883.264465,214.534164 876.462708,211.805191 873.039246,204.531097 
	C869.716370,197.470840 872.857300,191.323441 877.389587,185.768677 
	C877.799683,185.266022 878.062561,184.643204 878.393799,184.076172 
z"/>
<path fill="#B7950B" opacity="1.000000" stroke="none" 
	d="
M878.026611,184.110001 
	C878.062561,184.643204 877.799683,185.266022 877.389587,185.768677 
	C872.857300,191.323441 869.716370,197.470840 873.039246,204.531097 
	C876.462708,211.805191 883.264465,214.534164 890.876770,215.464310 
	C891.696899,215.564514 892.534607,215.520004 893.815613,215.648804 
	C888.593750,220.430801 879.991577,219.882980 872.286194,214.355148 
	C866.597595,210.274155 863.770203,202.886887 867.047424,196.782104 
	C869.594299,192.037643 874.051392,188.318619 878.026611,184.110001 
z"/>
<path fill="#3E63A4" opacity="1.000000" stroke="none" 
	d="
M667.013123,183.918549 
	C671.796875,179.783325 677.255615,177.221893 683.382812,176.219040 
	C683.910156,176.849579 684.437439,177.480103 684.964783,178.110626 
	C683.550110,178.899277 681.379517,179.357376 680.863037,180.538742 
	C679.334167,184.035263 677.560059,187.814545 677.548340,191.488541 
	C677.532776,196.383438 680.782227,197.864426 687.116211,196.485657 
	C690.554871,193.547394 693.299683,190.834320 696.044556,188.121246 
	C696.819885,186.888687 697.595276,185.656143 698.441345,184.311188 
	C703.543152,193.659912 695.575256,210.280319 683.168457,215.349426 
	C674.041809,215.829849 666.856445,212.993225 662.215149,205.931000 
	C657.813110,199.232788 660.799866,192.852814 664.728882,186.901840 
	C664.900391,186.642166 664.903137,186.271133 664.984497,185.951965 
	C664.984497,185.951965 664.960266,185.961395 665.257202,185.902359 
	C666.040405,185.201721 666.526794,184.560135 667.013123,183.918549 
z"/>
<path fill="#B7950B" opacity="1.000000" stroke="none" 
	d="
M664.623962,185.936981 
	C664.903137,186.271133 664.900391,186.642166 664.728882,186.901840 
	C660.799866,192.852814 657.813110,199.232788 662.215149,205.931000 
	C666.856445,212.993225 674.041809,215.829849 682.841797,215.520599 
	C677.248352,220.658188 670.883301,219.410309 664.658020,216.443878 
	C658.649292,213.580597 653.913147,209.091217 654.345215,201.981674 
	C654.757812,195.194214 657.660217,189.235199 664.623962,185.936981 
z"/>
<path fill="#BCA01E" opacity="1.000000" stroke="none" 
	d="
M695.715515,188.065979 
	C693.299683,190.834320 690.554871,193.547394 687.446106,196.271118 
	C689.658020,193.331711 689.259460,187.395279 695.715515,188.065979 
z"/>
<path fill="#B7950B" opacity="1.000000" stroke="none" 
	d="
M666.692688,183.973755 
	C666.526794,184.560135 666.040405,185.201721 665.254272,185.915039 
	C665.427063,185.334152 665.899658,184.681549 666.692688,183.973755 
z"/>
<path fill="#3E63A4" opacity="1.000000" stroke="none" 
	d="
M252.268066,184.045593 
	C257.308807,180.233780 262.495422,176.753876 269.040894,176.365738 
	C269.549896,176.918671 270.058899,177.471603 270.567902,178.024521 
	C269.247223,178.666000 267.255859,178.969162 266.730011,180.011566 
	C265.068604,183.305099 263.010620,186.829361 262.839203,190.348740 
	C262.536926,196.554733 267.873108,199.507339 272.995941,195.977356 
	C277.240692,193.052414 280.650421,188.915710 284.306122,185.433945 
	C289.207977,193.385315 280.756989,210.795425 268.141144,215.444122 
	C264.254547,214.998550 260.973907,214.967438 258.086151,213.886581 
	C245.329727,209.111938 241.988815,198.362289 249.698471,187.691376 
	C250.569107,186.486313 251.412201,185.261337 252.268066,184.045593 
z"/>
<path fill="#B5940C" opacity="1.000000" stroke="none" 
	d="
M251.909760,184.085785 
	C251.412201,185.261337 250.569107,186.486313 249.698471,187.691376 
	C241.988815,198.362289 245.329727,209.111938 258.086151,213.886581 
	C260.973907,214.967438 264.254547,214.998550 267.806335,215.612457 
	C261.771332,220.554520 252.873489,219.777710 245.441452,213.720047 
	C239.569931,208.934326 237.818909,201.505844 241.989853,194.527252 
	C244.355499,190.569153 248.311615,187.561615 251.909760,184.085785 
z"/>
<path fill="#3F64A3" opacity="1.000000" stroke="none" 
	d="
M455.560028,196.231171 
	C463.464630,189.675629 471.021027,188.343109 478.797668,192.836044 
	C470.391968,202.791733 462.095215,212.618454 453.428406,222.126770 
	C449.152344,212.819046 450.574188,204.350815 455.560028,196.231171 
z"/>
<path fill="#B7950B" opacity="1.000000" stroke="none" 
	d="
M455.185791,196.239716 
	C450.574188,204.350815 449.152344,212.819046 453.118439,222.159821 
	C451.488007,223.458755 449.797516,224.406281 448.134796,225.338211 
	C441.435486,216.733948 445.086060,201.189606 455.185791,196.239716 
z"/>
<path fill="#3E63A4" opacity="1.000000" stroke="none" 
	d="
M150.770828,148.905670 
	C157.924332,142.965683 166.252029,142.118576 175.026169,143.411194 
	C177.863022,143.829132 178.714691,145.789169 177.362366,148.108994 
	C175.211670,151.798309 172.977417,155.519211 170.228424,158.760193 
	C166.325073,163.362091 161.922668,167.540695 157.372925,171.471558 
	C154.931839,163.663834 152.851334,156.284760 150.770828,148.905670 
z"/>
<path fill="#B79408" opacity="1.000000" stroke="none" 
	d="
M150.432144,148.977158 
	C152.851334,156.284760 154.931839,163.663834 157.029053,171.414398 
	C155.485550,172.963959 153.925323,174.142044 151.473724,175.993179 
	C149.341446,168.128372 147.129868,160.918991 145.657196,153.561707 
	C145.424637,152.399902 148.530914,150.569763 150.432144,148.977158 
z"/>
</svg>